<svg width="28" height="28" viewBox="0 0 28 28" fill="none" xmlns="http://www.w3.org/2000/svg">
<path d="M11.008 12.0707C11.0762 11.6211 11.226 11.226 11.4168 10.8854C11.6075 10.5448 11.88 10.2587 12.2206 10.0408C12.5475 9.8364 12.9563 9.74103 13.4603 9.72741C13.7737 9.74103 14.0598 9.79553 14.3186 9.90452C14.5911 10.0271 14.8363 10.1906 15.0271 10.395C15.2178 10.5993 15.3677 10.8446 15.4903 11.117C15.6129 11.3895 15.6674 11.6892 15.681 11.989H18.1197C18.0924 11.3486 17.9698 10.7628 17.7382 10.2315C17.5066 9.70016 17.1933 9.23695 16.7846 8.85549C16.3758 8.47402 15.8854 8.17429 15.3132 7.95631C14.741 7.73833 14.1143 7.64297 13.4195 7.64297C12.5339 7.64297 11.7574 7.79283 11.1034 8.10618C10.4495 8.41952 9.90452 8.82824 9.46856 9.35957C9.03259 9.8909 8.70562 10.504 8.50127 11.2124C8.29691 11.9208 8.17429 12.6565 8.17429 13.4467V13.8146C8.17429 14.6047 8.28328 15.3404 8.48764 16.0489C8.692 16.7573 9.01897 17.3704 9.45493 17.8881C9.8909 18.4058 10.4359 18.8281 11.0898 19.1278C11.7437 19.4276 12.5203 19.5911 13.4058 19.5911C14.0462 19.5911 14.6456 19.4821 15.2042 19.2777C15.7628 19.0734 16.2532 18.7873 16.6756 18.4194C17.0979 18.0516 17.4385 17.6292 17.6837 17.1388C17.929 16.6483 18.0788 16.1306 18.0924 15.572H15.6538C15.6402 15.8581 15.572 16.117 15.4494 16.3622C15.3268 16.6074 15.1633 16.8118 14.959 16.9889C14.7546 17.166 14.523 17.3023 14.2505 17.3976C13.9917 17.493 13.7192 17.5202 13.4331 17.5339C12.9426 17.5202 12.5339 17.4249 12.2206 17.2205C11.88 17.0025 11.6075 16.7164 11.4168 16.3758C11.226 16.0352 11.0762 15.6265 11.008 15.1769C10.9399 14.7274 10.8991 14.2641 10.8991 13.8146V13.4467C10.8991 12.9699 10.9399 12.5203 11.008 12.0707ZM13.6238 0C6.10347 0 0 6.10347 0 13.6238C0 21.1442 6.10347 27.2476 13.6238 27.2476C21.1442 27.2476 27.2476 21.1442 27.2476 13.6238C27.2476 6.10347 21.1442 0 13.6238 0ZM13.6238 24.5229C7.61572 24.5229 2.72476 19.6319 2.72476 13.6238C2.72476 7.61572 7.61572 2.72476 13.6238 2.72476C19.6319 2.72476 24.5229 7.61572 24.5229 13.6238C24.5229 19.6319 19.6319 24.5229 13.6238 24.5229Z" fill="white"/>
</svg>
