<svg width="512" height="512" viewBox="0 0 512 512" fill="none" xmlns="http://www.w3.org/2000/svg">
<path d="M21.4 314V206H44.35L107.5 281.3V206H129.4V314H106.45L43 238.4V314H21.4ZM167.805 314C163.805 314 160.155 313.05 156.855 311.15C153.655 309.15 151.055 306.55 149.055 303.35C147.155 300.05 146.205 296.4 146.205 292.4V227.6C146.205 223.6 147.155 220 149.055 216.8C151.055 213.5 153.655 210.9 156.855 209C160.155 207 163.805 206 167.805 206H232.455C236.455 206 240.055 207 243.255 209C246.555 210.9 249.205 213.5 251.205 216.8C253.205 220 254.205 223.6 254.205 227.6V236.9H232.305V228.65C232.305 228.35 232.205 228.15 232.005 228.05C231.905 227.85 231.705 227.75 231.405 227.75H168.705C168.405 227.75 168.155 227.85 167.955 228.05C167.855 228.15 167.805 228.35 167.805 228.65V291.35C167.805 291.65 167.855 291.9 167.955 292.1C168.155 292.2 168.405 292.25 168.705 292.25H231.405C231.705 292.25 231.905 292.2 232.005 292.1C232.205 291.9 232.305 291.65 232.305 291.35V273.65H208.455V251.9H254.205V292.4C254.205 296.4 253.205 300.05 251.205 303.35C249.205 306.55 246.555 309.15 243.255 311.15C240.055 313.05 236.455 314 232.455 314H167.805ZM292.316 314C288.316 314 284.666 313.05 281.366 311.15C278.166 309.15 275.566 306.55 273.566 303.35C271.666 300.05 270.716 296.4 270.716 292.4V227.6C270.716 223.6 271.666 220 273.566 216.8C275.566 213.5 278.166 210.9 281.366 209C284.666 207 288.316 206 292.316 206H378.416V227.75H297.416C295.816 227.75 294.566 228.2 293.666 229.1C292.766 229.9 292.316 231.15 292.316 232.85V287.15C292.316 288.75 292.766 290 293.666 290.9C294.566 291.8 295.816 292.25 297.416 292.25H378.416V314H292.316ZM431.856 314V227.75H388.656V206H496.656V227.75H453.606V314H431.856Z" fill="white"/>
<path d="M13 332.75H499.506V340.25H13V332.75Z" fill="white"/>
</svg>
