<svg width="61" height="61" viewBox="0 0 61 61" fill="none" xmlns="http://www.w3.org/2000/svg">
<path d="M46.3258 43.0929C46.755 43.5222 46.9962 44.1043 46.9962 44.7113C46.9962 45.3183 46.755 45.9004 46.3258 46.3297C45.8966 46.7589 45.3144 47 44.7074 47C44.1003 47 43.5181 46.7589 43.0889 46.3297L31 34.2377L18.9073 46.3258C18.4781 46.7551 17.8959 46.9962 17.2888 46.9962C16.6818 46.9962 16.0996 46.7551 15.6704 46.3258C15.2411 45.8966 15 45.3145 15 44.7075C15 44.1005 15.2411 43.5183 15.6704 43.0891L27.7631 31.001L15.6742 18.909C15.245 18.4797 15.0038 17.8976 15.0038 17.2906C15.0038 16.6836 15.245 16.1015 15.6742 15.6722C16.1034 15.243 16.6856 15.0019 17.2926 15.0019C17.8997 15.0019 18.4819 15.243 18.9111 15.6722L31 27.7642L43.0927 15.6703C43.5219 15.2411 44.1041 15 44.7112 15C45.3182 15 45.9004 15.2411 46.3296 15.6703C46.7589 16.0996 47 16.6817 47 17.2887C47 17.8957 46.7589 18.4778 46.3296 18.9071L34.2369 31.001L46.3258 43.0929Z" fill="#F8F8F8"/>
</svg>
